<svg xmlns="http://www.w3.org/2000/svg" width="107" height="40" viewBox="0 0 107 40" fill="none">
  <path d="M66.9588 25.0825V0H70.4841V25.0825H66.9588Z" fill="#D66E0F"/>
  <path d="M81.1812 10.7772C81.0083 9.3926 80.2121 8.45764 78.7229 8.45764C77.3383 8.45764 76.4723 9.3926 76.4723 10.5005C76.4723 12.1277 78.1345 12.6123 80.0385 13.2007C82.7387 14.0318 85.232 15.659 85.232 19.2245C85.232 22.7899 82.5317 25.3522 78.7926 25.3522C75.3303 25.3522 72.0068 22.9977 72.0068 18.5663H75.6071C75.78 20.8859 76.9576 22.0627 78.8616 22.0627C80.5238 22.0627 81.6316 20.9898 81.6316 19.4315C81.6316 18.1159 80.6277 17.2507 78.3771 16.5235C73.6689 15.035 72.8727 12.9922 72.8727 10.8113C72.8727 7.41879 75.7466 5.16821 78.8965 5.16821C82.0464 5.16821 84.6784 7.38391 84.7823 10.7765H81.182L81.1812 10.7772Z" fill="#D66E0F"/>
  <path d="M29.7336 31.2845V5.70387H33.0223V8.64601H33.0913C34.7185 6.32718 37.1761 5.18445 39.9105 5.18445C45.6219 5.18445 49.8455 9.61509 49.8455 15.5342C49.8455 20.934 45.6568 25.3654 40.1531 25.3654C37.2451 25.3654 34.6495 24.1885 33.4029 22.1116H33.3339V31.2845H29.7336ZM46.2452 15.3265C46.2452 11.83 43.4759 8.47236 39.6337 8.47236C36.0334 8.47236 33.2641 11.6913 33.2641 15.2567C33.2641 18.8222 36.0334 22.0759 39.7717 22.0759C43.5101 22.0759 46.2452 18.995 46.2452 15.3257V15.3265Z" fill="#D66E0F"/>
  <path d="M0.0514221 24.8132V21.5753L0.0711382 10.17V5.61572H3.53346V24.8882H0.0514221V24.8132Z" fill="#D66E0F"/>
  <path d="M6.60556 24.8132V21.5753L6.623 10.17V5.61573H10.0868V7.76091C10.557 6.68794 12.1183 5.23962 14.3954 5.23962C16.1842 5.23962 17.653 5.93573 18.3104 7.59181C18.9125 6.5378 20.5701 5.23962 22.9215 5.23962C25.273 5.23962 27.2316 6.5378 27.1944 9.88789L27.1376 21.5761V24.8882H23.8072V21.5761L23.77 10.3595C23.77 9.15463 23.0732 8.30763 21.794 8.30763C20.3434 8.30763 19.253 9.19255 18.6683 10.3785L18.6114 21.5768V24.889H15.2811V21.5768L15.2439 10.3603C15.2439 9.15539 14.5471 8.30839 13.286 8.30839C11.7801 8.30839 10.6328 9.28657 10.0876 10.5294V24.8897H6.60556V24.8147V24.8132Z" fill="#D66E0F"/>
  <path d="M51.3408 20.2195V5.61572H54.6909L54.7281 19.7691C54.7281 21.3493 55.6312 22.1978 57.2888 22.1978C58.7947 22.1978 59.9223 21.2181 60.4872 19.9761V5.61572H63.9511V24.8882H60.4872V22.743C59.9989 23.816 58.4558 25.2643 56.1589 25.2643C53.3541 25.2643 51.3408 23.9654 51.3408 20.2202V20.2195Z" fill="#D66E0F"/>
  <path d="M86.2449 15.2512C86.2449 9.51104 90.5731 5.10693 96.2375 5.10693C101.902 5.10693 106.251 9.51104 106.251 15.2512C106.251 20.9914 101.941 25.3955 96.2375 25.3955C90.5337 25.3955 86.2449 21.0301 86.2449 15.2512ZM96.2375 22.1205C99.9652 22.1577 102.788 19.186 102.788 15.2512C102.788 11.3165 99.9652 8.34404 96.2375 8.3812C92.531 8.34404 89.7269 11.318 89.7269 15.2512C89.7269 19.1844 92.5318 22.1577 96.2375 22.1205Z" fill="#D66E0F"/>
  <path d="M75.6848 36.043L73.9642 36.1409C73.1817 36.1818 72.7328 36.6383 72.6918 37.4208L72.594 39.1414C72.5857 39.3128 72.7487 39.3696 72.8791 39.2309L75.7735 36.3282C75.9039 36.1894 75.8554 36.0347 75.684 36.043" fill="#D66E0F"/>
  <path d="M72.8797 32.5202C72.7493 32.3814 72.5863 32.4383 72.5946 32.6096L72.6924 34.3302C72.7334 35.1127 73.1815 35.57 73.9648 35.6102L75.6854 35.708C75.8567 35.7163 75.9053 35.5609 75.7748 35.4229L72.8805 32.5202H72.8797Z" fill="#D66E0F"/>
  <path d="M72.1616 37.4208C72.1207 36.6383 71.6725 36.181 70.8892 36.1408L69.1687 36.043C68.9973 36.0347 68.9488 36.1977 69.0792 36.3281L71.9736 39.2308C72.104 39.3696 72.267 39.3127 72.2587 39.1414L72.1609 37.4208H72.1616Z" fill="#D66E0F"/>
  <path d="M71.9744 32.5203L69.08 35.423C68.9496 35.5534 68.9981 35.7165 69.1695 35.7081L70.89 35.6103C71.6726 35.5693 72.1215 35.1129 72.1624 34.3303L72.2602 32.6098C72.2686 32.4384 72.1056 32.3815 71.9751 32.5203" fill="#D66E0F"/>
  <path d="M97.797 33.5569H97.0244L96.1857 34.4782H96.8598L97.797 33.5569Z" fill="#D66E0F"/>
  <path d="M100.9 37.0016C100.744 37.4209 100.365 37.725 99.8556 37.725C99.2634 37.725 98.7872 37.289 98.7872 36.5739C98.7872 35.8179 99.2475 35.4145 99.8556 35.4145C100.365 35.4145 100.752 35.752 100.9 36.1705V37.0009V37.0016ZM100.9 35.5222C100.637 35.0945 100.209 34.8807 99.732 34.8807C98.885 34.8807 98.1616 35.5958 98.1616 36.5739C98.1616 37.6181 98.8441 38.2596 99.732 38.2596C100.25 38.2596 100.637 38.0048 100.9 37.6515V38.1944H101.508V33.5575H100.9V35.5222Z" fill="#D66E0F"/>
  <path d="M102.658 36.2122C102.769 35.7413 103.106 35.4144 103.63 35.4144C104.154 35.4144 104.542 35.7269 104.584 36.2122H102.659H102.658ZM105.208 36.426C105.208 35.538 104.591 34.8806 103.629 34.8806C102.724 34.8806 102.009 35.604 102.009 36.5739C102.009 37.6097 102.683 38.2595 103.67 38.2595C104.311 38.2595 104.845 37.9881 105.092 37.5528L104.632 37.2404C104.451 37.5278 104.098 37.7257 103.687 37.7257C103.143 37.7257 102.684 37.3761 102.624 36.7225H105.183C105.199 36.6239 105.208 36.5253 105.208 36.4268" fill="#D66E0F"/>
  <path d="M97.0765 36.862C97.0765 37.4868 96.7391 37.7249 96.2462 37.7249C95.7533 37.7249 95.4159 37.4618 95.4159 36.862V34.9465H94.8077V36.8127C94.8077 37.8075 95.3749 38.2595 96.2462 38.2595C97.1174 38.2595 97.6846 37.7742 97.6846 36.8127V34.9465H97.0765V36.862Z" fill="#D66E0F"/>
  <path d="M89.3481 36.2781C88.8795 36.1545 88.6247 36.081 88.6247 35.8095C88.6247 35.5714 88.8469 35.4152 89.2169 35.4152C89.5869 35.4152 89.9236 35.5464 90.1625 35.7602L90.4423 35.2833C90.1625 35.0201 89.6939 34.8806 89.2503 34.8806C88.5185 34.8806 88.0173 35.2749 88.0173 35.8671C88.0173 36.517 88.6095 36.6975 89.1274 36.8211C89.5301 36.9196 89.8918 37.0349 89.8918 37.3147C89.8918 37.5695 89.6612 37.7257 89.2419 37.7257C88.8476 37.7257 88.4609 37.5611 88.1811 37.323L87.9013 37.8C88.222 38.0798 88.7566 38.2603 89.2745 38.2603C90.0146 38.2603 90.5075 37.8576 90.5075 37.2738C90.5075 36.6573 89.9979 36.4518 89.3481 36.2789" fill="#D66E0F"/>
  <path d="M93.5738 37.0015C93.4176 37.4209 93.0392 37.7249 92.5296 37.7249C91.9374 37.7249 91.4612 37.2889 91.4612 36.5739C91.4612 35.8179 91.9215 35.4144 92.5296 35.4144C93.0392 35.4144 93.4259 35.7519 93.5738 36.1705V37.0008V37.0015ZM93.5738 35.5221C93.3106 35.0945 92.883 34.8806 92.406 34.8806C91.559 34.8806 90.8356 35.5957 90.8356 36.5739C90.8356 37.618 91.5181 38.2595 92.406 38.2595C92.9239 38.2595 93.3106 38.0047 93.5738 37.6514V38.1943H94.1819V34.9466H93.5738V35.5221Z" fill="#D66E0F"/>
  <path d="M79.4914 35.8346H77.7019V34.4925H79.4914C79.9472 34.4925 80.321 34.6873 80.321 35.1597C80.321 35.5905 79.979 35.8346 79.4914 35.8346ZM80.3453 36.4693V36.3146C81.0201 36.2335 81.4599 35.7209 81.4599 35.0619C81.4599 34.0049 80.622 33.5575 79.565 33.5575H76.588V38.1936H77.7027V36.7703H79.1669C80.0533 36.7703 80.2239 37.5188 80.4112 38.1936H81.6556C81.4198 37.3072 81.2249 36.5914 80.346 36.4693" fill="#D66E0F"/>
  <path d="M84.4752 37.2581H83.353V34.4926H84.4752C85.4269 34.4926 86.0942 35.0295 86.0942 35.8757C86.0942 36.8114 85.3624 37.2588 84.4752 37.2588M84.4752 33.5569H82.2383V38.193H84.4752C86.0123 38.193 87.2323 37.4203 87.2323 35.875C87.2323 34.4433 86.0775 33.5569 84.4752 33.5569Z" fill="#D66E0F"/>
  <path d="M0.693069 38.212C0.456485 38.149 0.2472 38.0596 0.0659702 37.9436V37.3165C0.2472 37.4317 0.461793 37.5204 0.709751 37.5803C0.956951 37.641 1.18823 37.6713 1.40282 37.6713C1.68869 37.6713 1.91011 37.6236 2.06708 37.5273C2.22404 37.431 2.30214 37.2952 2.30214 37.1185C2.30214 36.9752 2.25134 36.8584 2.14973 36.7682C2.04812 36.6772 1.86234 36.5908 1.59239 36.5081L1.11392 36.3678C0.745392 36.2579 0.467101 36.1077 0.280563 35.9182C0.0932673 35.7286 0 35.4738 0 35.1546C0 34.9347 0.0629374 34.7307 0.189571 34.5442C0.316204 34.3569 0.500465 34.2075 0.742357 34.0945C0.984249 33.9815 1.27088 33.9254 1.60073 33.9254C1.80395 33.9254 2.01021 33.952 2.21949 34.0035C2.42878 34.0558 2.61835 34.137 2.78896 34.2469V34.874C2.61304 34.7641 2.41589 34.6845 2.19902 34.6344C1.98139 34.5851 1.78196 34.5601 1.60073 34.5601C1.2815 34.5601 1.05325 34.6094 0.916004 34.7087C0.778755 34.8081 0.709751 34.937 0.709751 35.0962C0.709751 35.2395 0.759039 35.3563 0.858374 35.4473C0.957709 35.5383 1.11695 35.6164 1.33685 35.6824L1.81533 35.8226C2.23921 35.9493 2.54404 36.1047 2.73133 36.289C2.91863 36.4732 3.0119 36.7303 3.0119 37.0609C3.0119 37.2808 2.94896 37.4863 2.82233 37.6759C2.69569 37.8654 2.51143 38.0186 2.26954 38.1339C2.02765 38.2491 1.73874 38.3075 1.40282 38.3075C1.16624 38.3075 0.929653 38.2757 0.693069 38.2127V38.212Z" fill="#D66E0F"/>
  <path d="M4.6746 38.0347C4.35839 37.8535 4.10816 37.5972 3.9239 37.2673C3.73964 36.9375 3.64713 36.5553 3.64713 36.12C3.64713 35.6848 3.73888 35.3102 3.9239 34.9773C4.10816 34.6444 4.35839 34.3858 4.6746 34.2016C4.9908 34.0173 5.34189 33.9248 5.72709 33.9248C6.1123 33.9248 6.46263 34.0158 6.77959 34.197C7.09655 34.3783 7.34603 34.6361 7.53029 34.969C7.71455 35.3018 7.80706 35.6825 7.80706 36.1117C7.80706 36.5409 7.71455 36.9215 7.53029 37.2544C7.34603 37.5873 7.09579 37.8459 6.77959 38.0301C6.46339 38.2144 6.1123 38.3069 5.72709 38.3069C5.34189 38.3069 4.9908 38.2159 4.6746 38.0347ZM6.41182 37.4819C6.61504 37.3613 6.7758 37.1839 6.89485 36.9496C7.01314 36.716 7.07228 36.4393 7.07228 36.12C7.07228 35.8008 7.01314 35.5248 6.89485 35.2905C6.77656 35.0569 6.6158 34.878 6.41182 34.7544C6.20784 34.6308 5.9796 34.5686 5.72709 34.5686C5.47458 34.5686 5.24558 34.6292 5.04236 34.7498C4.83839 34.8711 4.67763 35.0486 4.55934 35.2821C4.44105 35.5157 4.3819 35.7925 4.3819 36.1117C4.3819 36.4309 4.44105 36.7069 4.55934 36.9412C4.67763 37.1748 4.83839 37.3538 5.04236 37.4774C5.24558 37.601 5.47383 37.6631 5.72709 37.6631C5.98036 37.6631 6.2086 37.6025 6.41182 37.4819Z" fill="#D66E0F"/>
  <path d="M8.76425 31.9857H9.48235V38.2415H8.76425V31.9857Z" fill="#D66E0F"/>
  <path d="M11.517 38.1135C11.2501 37.9846 11.0438 37.7904 10.8982 37.5319C10.7526 37.2733 10.6798 36.9594 10.6798 36.5908V33.9915H11.3979V36.5908C11.3979 36.9647 11.4912 37.2377 11.6785 37.4075C11.865 37.5781 12.1266 37.6631 12.4626 37.6631C12.7985 37.6631 13.0593 37.5781 13.2466 37.4075C13.4339 37.2369 13.5272 36.9647 13.5272 36.5908V33.9915H14.2453V36.5908C14.2453 36.9427 14.1679 37.2483 14.014 37.5069C13.8601 37.7654 13.6478 37.9633 13.3786 38.1013C13.1086 38.2386 12.8038 38.3076 12.4626 38.3076C12.0993 38.3076 11.7847 38.2431 11.5177 38.1135H11.517Z" fill="#D66E0F"/>
  <path d="M16.1878 38.0348C15.8716 37.8536 15.6214 37.5958 15.4371 37.2629C15.2529 36.93 15.1604 36.5463 15.1604 36.1118C15.1604 35.6773 15.2521 35.3028 15.4371 34.9729C15.6214 34.643 15.8716 34.386 16.1878 34.201C16.504 34.0167 16.8574 33.9242 17.2487 33.9242C17.5899 33.9242 17.8925 33.9932 18.1563 34.1304C18.4202 34.2677 18.6325 34.4565 18.7918 34.6961C18.951 34.9357 19.0504 35.2064 19.089 35.509H18.4126C18.3573 35.2284 18.2322 35.0032 18.0373 34.8326C17.8417 34.662 17.5846 34.5771 17.2654 34.5771C17.0015 34.5771 16.7649 34.6377 16.5556 34.7583C16.3463 34.8796 16.1841 35.0555 16.0688 35.2868C15.9535 35.5181 15.8951 35.7934 15.8951 36.1118C15.8951 36.4303 15.9543 36.7071 16.0726 36.9414C16.1909 37.1749 16.3531 37.3539 16.5594 37.4775C16.7657 37.6011 17.0007 37.6633 17.2654 37.6633C17.5846 37.6633 17.8432 37.5791 18.0411 37.4115C18.239 37.244 18.3709 37.0165 18.4369 36.7306H19.1133C19.0693 37.0332 18.9662 37.3039 18.8039 37.5435C18.6416 37.7831 18.427 37.9696 18.1601 38.1046C17.8932 38.2396 17.5891 38.3071 17.2479 38.3071C16.8574 38.3071 16.504 38.2161 16.1871 38.0348H16.1878ZM16.7611 39.9707C16.6398 39.9518 16.5298 39.9222 16.4313 39.8843V39.3482C16.6512 39.4028 16.8574 39.4308 17.05 39.4308C17.1933 39.4308 17.3033 39.4073 17.3799 39.3611C17.4572 39.3141 17.4951 39.2526 17.4951 39.1753C17.4951 39.098 17.4564 39.0403 17.3799 39.0016C17.3025 38.963 17.1903 38.944 17.0417 38.944H16.8187L16.9014 38.2426H17.4132L17.3723 38.5399C17.5922 38.5505 17.7742 38.6127 17.9167 38.7256C18.06 38.8386 18.1313 38.9941 18.1313 39.192C18.1313 39.4286 18.0381 39.6227 17.8508 39.7736C17.6635 39.9252 17.4163 40.0003 17.1084 40.0003C16.9984 40.0003 16.8824 39.9905 16.7619 39.9715L16.7611 39.9707Z" fill="#D66E0F"/>
  <path d="M20.7597 38.0346C20.4435 37.8534 20.1933 37.5971 20.009 37.2672C19.8248 36.9374 19.7323 36.5552 19.7323 36.1199C19.7323 35.6847 19.824 35.3101 20.009 34.9772C20.1933 34.6443 20.4435 34.3857 20.7597 34.2015C21.0759 34.0172 21.427 33.9247 21.8122 33.9247C22.1974 33.9247 22.5478 34.0157 22.8647 34.1969C23.1809 34.3782 23.4312 34.636 23.6154 34.9689C23.7997 35.3017 23.8922 35.6824 23.8922 36.1116C23.8922 36.5408 23.7997 36.9214 23.6154 37.2543C23.4312 37.5872 23.1809 37.8458 22.8647 38.03C22.5485 38.2143 22.1974 38.3068 21.8122 38.3068C21.427 38.3068 21.0759 38.2158 20.7597 38.0346ZM22.497 37.4818C22.7002 37.3612 22.8617 37.1838 22.98 36.9495C23.0983 36.7159 23.1574 36.4392 23.1574 36.1199C23.1574 35.8007 23.0983 35.5247 22.98 35.2904C22.8617 35.0568 22.7009 34.8779 22.497 34.7543C22.293 34.6307 22.0647 34.5685 21.8122 34.5685C21.5597 34.5685 21.3307 34.6291 21.1275 34.7497C20.9235 34.871 20.7628 35.0485 20.6445 35.282C20.5262 35.5156 20.467 35.7923 20.467 36.1116C20.467 36.4308 20.5262 36.7068 20.6445 36.9411C20.7628 37.1747 20.9235 37.3537 21.1275 37.4773C21.3307 37.6009 21.5597 37.663 21.8122 37.663C22.0647 37.663 22.2937 37.6024 22.497 37.4818ZM22.1087 33.0383C22.0208 33.0132 21.9245 32.9685 21.8198 32.9018L21.5885 32.7615C21.5112 32.7122 21.4483 32.6766 21.399 32.6546C21.3497 32.6326 21.3027 32.6212 21.2587 32.6212C21.176 32.6212 21.1184 32.6553 21.085 32.7243C21.0524 32.7933 21.0411 32.9018 21.0524 33.0504H20.4997C20.4724 32.7645 20.5285 32.5317 20.6687 32.3528C20.809 32.1738 21.0001 32.0844 21.242 32.0844C21.3353 32.0844 21.4263 32.0965 21.5142 32.1215C21.6022 32.1465 21.6985 32.1913 21.8031 32.2572L22.0344 32.3975C22.111 32.4468 22.1747 32.4832 22.224 32.5052C22.2733 32.5272 22.3203 32.5378 22.3643 32.5378C22.4469 32.5378 22.5045 32.5037 22.5379 32.4347C22.5713 32.3657 22.5819 32.2572 22.5713 32.1086H23.1241C23.1407 32.2959 23.121 32.462 23.0664 32.6076C23.0111 32.7532 22.9231 32.8677 22.8026 32.9503C22.6812 33.033 22.5409 33.0739 22.3817 33.0739C22.2884 33.0739 22.1974 33.0618 22.1095 33.0368L22.1087 33.0383Z" fill="#D66E0F"/>
  <path d="M25.5951 38.0347C25.2736 37.8535 25.0218 37.5956 24.8398 37.2628C24.6586 36.9299 24.5676 36.5462 24.5676 36.1117C24.5676 35.6772 24.6586 35.3261 24.8398 34.9932C25.021 34.6603 25.269 34.3987 25.5822 34.2092C25.8953 34.0196 26.2479 33.9248 26.6385 33.9248C27.029 33.9248 27.3452 34.009 27.6371 34.1766C27.9283 34.3441 28.1558 34.5739 28.3181 34.8658C28.4803 35.1578 28.5615 35.4793 28.5615 35.8311C28.5615 35.9684 28.5501 36.0897 28.5281 36.1943H25.3092C25.3092 36.4916 25.3699 36.7517 25.4904 36.9739C25.6117 37.1968 25.7763 37.3674 25.9856 37.4857C26.1949 37.604 26.4284 37.6631 26.687 37.6631C26.9895 37.6631 27.2466 37.5835 27.4589 37.4235C27.6705 37.2643 27.8123 37.0656 27.8836 36.829H28.5599C28.516 37.1043 28.406 37.3545 28.2301 37.5797C28.0542 37.8057 27.8312 37.9831 27.5613 38.112C27.2913 38.2409 26.9949 38.3062 26.6703 38.3062C26.2745 38.3062 25.9151 38.2152 25.5935 38.0339L25.5951 38.0347ZM27.6341 35.0637C27.5325 34.9045 27.3945 34.7794 27.2216 34.6884C27.0487 34.5974 26.8515 34.5519 26.6316 34.5519C26.3177 34.5519 26.0485 34.6467 25.8226 34.8363C25.5966 35.0258 25.4457 35.2836 25.3683 35.6082H27.8191C27.7971 35.405 27.7349 35.223 27.6333 35.0637H27.6341Z" fill="#D66E0F"/>
  <path d="M29.9405 38.212C29.7039 38.149 29.4946 38.0596 29.3134 37.9436V37.3165C29.4946 37.4317 29.7092 37.5204 29.9572 37.5803C30.2044 37.641 30.4356 37.6713 30.6502 37.6713C30.9361 37.6713 31.1575 37.6236 31.3145 37.5273C31.4714 37.431 31.5495 37.2952 31.5495 37.1185C31.5495 36.9752 31.4987 36.8584 31.3971 36.7682C31.2955 36.6772 31.1097 36.5908 30.8398 36.5081L30.3613 36.3678C29.9928 36.2579 29.7145 36.1077 29.528 35.9182C29.3414 35.7286 29.2474 35.4738 29.2474 35.1546C29.2474 34.9347 29.3103 34.7307 29.437 34.5442C29.5636 34.3569 29.7479 34.2075 29.9898 34.0945C30.2317 33.9815 30.5175 33.9254 30.8481 33.9254C31.0514 33.9254 31.2576 33.952 31.4669 34.0035C31.6762 34.0558 31.8658 34.137 32.0364 34.2469V34.874C31.8604 34.7641 31.6633 34.6845 31.4464 34.6344C31.2288 34.5851 31.0294 34.5601 30.8481 34.5601C30.5289 34.5601 30.3007 34.6094 30.1634 34.7087C30.0262 34.8081 29.9572 34.937 29.9572 35.0962C29.9572 35.2395 30.0064 35.3563 30.1058 35.4473C30.2051 35.5383 30.3644 35.6164 30.5843 35.6824L31.0627 35.8226C31.4866 35.9493 31.7914 36.1047 31.9787 36.289C32.166 36.4732 32.2593 36.7303 32.2593 37.0609C32.2593 37.2808 32.1964 37.4863 32.0697 37.6759C31.9431 37.8654 31.7588 38.0186 31.5169 38.1339C31.2751 38.2491 30.9861 38.3075 30.6502 38.3075C30.4136 38.3075 30.1771 38.2757 29.9405 38.2127V38.212Z" fill="#D66E0F"/>
  <path d="M35.7714 38.0263C35.4772 37.8398 35.2459 37.5797 35.0783 37.2468C34.9108 36.9139 34.8266 36.5386 34.8266 36.12C34.8266 35.7014 34.9161 35.3261 35.095 34.9932C35.274 34.6603 35.5159 34.4002 35.8215 34.2137C36.1271 34.0264 36.4554 33.9331 36.808 33.9331C37.0613 33.9331 37.2986 33.9892 37.5215 34.1022C37.7445 34.2152 37.9272 34.3593 38.0705 34.5352V31.9851H38.7886V38.2409H38.1365L38.1115 37.6464C37.9515 37.8504 37.7551 38.0112 37.5215 38.1295C37.288 38.2478 37.0302 38.3069 36.7496 38.3069C36.3917 38.3069 36.0656 38.2136 35.7714 38.0263ZM37.5246 37.4819C37.7392 37.3613 37.9204 37.196 38.069 36.9867V35.2457C37.9318 35.0425 37.7627 34.8802 37.5617 34.7589C37.3608 34.6383 37.1227 34.5777 36.8482 34.5777C36.6063 34.5777 36.3871 34.6383 36.1923 34.7589C35.9966 34.8802 35.8427 35.0561 35.7305 35.2874C35.6175 35.5187 35.5614 35.794 35.5614 36.1124C35.5614 36.4309 35.6122 36.716 35.7138 36.9503C35.8154 37.1839 35.9602 37.3613 36.1468 37.4827C36.3341 37.604 36.5562 37.6639 36.8156 37.6639C37.0749 37.6639 37.3107 37.6032 37.5253 37.4827L37.5246 37.4819Z" fill="#D66E0F"/>
  <path d="M40.7719 38.0347C40.4504 37.8535 40.1987 37.5956 40.0167 37.2628C39.8354 36.9299 39.7444 36.5462 39.7444 36.1117C39.7444 35.6772 39.8354 35.3261 40.0167 34.9932C40.1979 34.6603 40.4459 34.3987 40.759 34.2092C41.0722 34.0196 41.4248 33.9248 41.8153 33.9248C42.2058 33.9248 42.522 34.009 42.814 34.1766C43.1052 34.3441 43.3326 34.5739 43.4949 34.8658C43.6572 35.1578 43.7383 35.4793 43.7383 35.8311C43.7383 35.9684 43.7269 36.0897 43.7057 36.1943H40.4868C40.4868 36.4916 40.5475 36.7517 40.668 36.9739C40.7886 37.1968 40.9539 37.3674 41.1632 37.4857C41.3725 37.604 41.606 37.6631 41.8646 37.6631C42.1672 37.6631 42.4242 37.5835 42.6365 37.4235C42.8481 37.2643 42.9899 37.0656 43.0612 36.829H43.7376C43.6936 37.1043 43.5836 37.3545 43.4077 37.5797C43.2318 37.8057 43.0089 37.9831 42.7389 38.112C42.469 38.2409 42.1725 38.3062 41.8479 38.3062C41.4521 38.3062 41.0927 38.2152 40.7712 38.0339L40.7719 38.0347ZM42.8102 35.0637C42.7086 34.9045 42.5706 34.7794 42.3977 34.6884C42.224 34.5974 42.0276 34.5519 41.8077 34.5519C41.4938 34.5519 41.2246 34.6467 40.9986 34.8363C40.7727 35.0258 40.6218 35.2836 40.5444 35.6082H42.9952C42.9732 35.405 42.911 35.223 42.8094 35.0637H42.8102Z" fill="#D66E0F"/>
  <path d="M46.6111 33.9915H47.2549L47.2883 34.8082C47.4422 34.539 47.6432 34.3244 47.8904 34.1644C48.1383 34.0052 48.4105 33.9248 48.7078 33.9248C49.005 33.9248 49.2591 34.0044 49.4873 34.1644C49.7155 34.3244 49.8824 34.5527 49.9862 34.8492C50.1728 34.5633 50.395 34.3373 50.6505 34.1728C50.9068 34.0075 51.1881 33.9248 51.4967 33.9248C51.7659 33.9248 52.0071 33.9893 52.2186 34.1189C52.4302 34.2486 52.597 34.4382 52.7176 34.6884C52.8381 34.9386 52.8988 35.2374 52.8988 35.5839V38.2409H52.1807V35.6742C52.1807 35.3223 52.1049 35.0539 51.954 34.8696C51.8023 34.6854 51.5923 34.5929 51.3223 34.5929C51.0804 34.5929 50.8598 34.6702 50.6619 34.8241C50.464 34.9781 50.282 35.2063 50.1174 35.5089V38.2402H49.3993V35.6734C49.3993 35.3269 49.322 35.06 49.1681 34.8727C49.0141 34.6854 48.8048 34.5921 48.541 34.5921C48.2991 34.5921 48.0777 34.6717 47.8767 34.8317C47.6758 34.9917 47.493 35.2275 47.3277 35.5415V38.2402H46.6096V33.99L46.6111 33.9915Z" fill="#D66E0F"/>
  <path d="M54.8223 32.0435H55.7216L54.6486 33.2567H53.9965L54.8215 32.0435H54.8223ZM54.0959 33.9915H54.8139V38.2417H54.0959V33.9915Z" fill="#D66E0F"/>
  <path d="M56.716 38.0263C56.4218 37.8398 56.1905 37.5797 56.0229 37.2468C55.8553 36.9139 55.7712 36.5386 55.7712 36.12C55.7712 35.7014 55.8607 35.3261 56.0396 34.9932C56.2186 34.6603 56.4605 34.4002 56.766 34.2137C57.0716 34.0264 57.4 33.9331 57.7526 33.9331C58.0058 33.9331 58.2439 33.9892 58.4661 34.1022C58.689 34.2152 58.8718 34.3593 59.0151 34.5352V31.9851H59.7332V38.2409H59.0811L59.0561 37.6464C58.8968 37.8504 58.6997 38.0112 58.4661 38.1295C58.2326 38.2478 57.9747 38.3069 57.6942 38.3069C57.3363 38.3069 57.0102 38.2136 56.716 38.0263ZM58.4699 37.4819C58.6845 37.3613 58.8657 37.196 59.0144 36.9867V35.2457C58.8771 35.0425 58.708 34.8802 58.5071 34.7589C58.3061 34.6383 58.068 34.5777 57.7935 34.5777C57.5516 34.5777 57.3325 34.6383 57.1376 34.7589C56.942 34.8802 56.788 35.0561 56.6758 35.2874C56.5628 35.5187 56.5067 35.794 56.5067 36.1124C56.5067 36.4309 56.5575 36.716 56.6591 36.9503C56.7607 37.1839 56.9056 37.3613 57.0921 37.4827C57.2794 37.604 57.5016 37.6639 57.7609 37.6639C58.0202 37.6639 58.2561 37.6032 58.4707 37.4827L58.4699 37.4819Z" fill="#D66E0F"/>
  <path d="M60.974 32.927C60.8777 32.8277 60.8299 32.7071 60.8299 32.5638C60.8299 32.4205 60.8792 32.3083 60.9785 32.2089C61.0779 32.1096 61.1962 32.0603 61.3334 32.0603C61.4707 32.0603 61.5958 32.1088 61.6921 32.2044C61.7884 32.3007 61.8362 32.4205 61.8362 32.563C61.8362 32.7056 61.7869 32.8269 61.6875 32.9263C61.5882 33.0256 61.4699 33.0749 61.3327 33.0749C61.1954 33.0749 61.0695 33.0256 60.974 32.9263V32.927ZM60.9702 33.9916H61.6883V38.2418H60.9702V33.9916Z" fill="#D66E0F"/>
  <path d="M63.4294 38.1673C63.2148 38.074 63.0404 37.9307 62.9055 37.7381C62.7705 37.5455 62.703 37.312 62.703 37.0367C62.703 36.7615 62.7758 36.5241 62.9214 36.3232C63.067 36.1222 63.2679 35.9683 63.5235 35.8614C63.779 35.7545 64.0694 35.7006 64.394 35.7006C64.7185 35.7006 65.0514 35.7696 65.3593 35.9069V35.5111C65.3593 35.2138 65.2698 34.984 65.0908 34.8218C64.9119 34.6595 64.6465 34.5784 64.2946 34.5784C63.8382 34.5784 63.409 34.686 63.0071 34.9006V34.2735C63.431 34.0423 63.8761 33.927 64.3439 33.927C64.7018 33.927 65.0097 33.9945 65.2683 34.1295C65.5269 34.2644 65.7248 34.4502 65.8628 34.6868C66 34.9234 66.069 35.1933 66.069 35.4959V38.2439H65.4252L65.3919 37.6744C65.2433 37.8723 65.0575 38.0278 64.8345 38.1408C64.6116 38.2538 64.3712 38.3099 64.1127 38.3099C63.8708 38.3099 63.6425 38.2629 63.4279 38.1696L63.4294 38.1673ZM64.8323 37.5357C65.0302 37.4288 65.2061 37.2619 65.3608 37.0367V36.4346C65.0855 36.3194 64.8019 36.261 64.5108 36.261C64.1695 36.261 63.9056 36.33 63.7183 36.4672C63.531 36.6045 63.4378 36.7895 63.4378 37.02C63.4378 37.2506 63.5106 37.4083 63.6562 37.5235C63.8018 37.6388 63.9845 37.6972 64.2052 37.6972C64.4258 37.6972 64.6344 37.6433 64.8323 37.5364V37.5357Z" fill="#D66E0F"/>
</svg>
